<?xml version="1.0" encoding="UTF-8"?>
<svg width="46px" height="46px" viewBox="0 0 46 46" version="1.1" xmlns="http://www.w3.org/2000/svg" xmlns:xlink="http://www.w3.org/1999/xlink">
    <!-- Generator: Sketch 49 (51002) - http://www.bohemiancoding.com/sketch -->
    <title>instagramActive</title>
    <desc>Created with Sketch.</desc>
    <defs></defs>
    <g id="Symbols" stroke="none" stroke-width="1" fill="none" fill-rule="evenodd">
        <g id="footer" transform="translate(-180.000000, -308.000000)">
            <g id="instagramActive" transform="translate(181.000000, 309.000000)">
                <circle id="Oval-4-Copy-3" stroke="#E6E6E6" cx="22" cy="22" r="22"></circle>
                <g id="Group-2" transform="translate(14.000000, 14.000000)" fill="#232323">
                    <path d="M11.96,3 C12.49,3 12.92,3.43 12.92,3.96 C12.92,4.49 12.49,4.92 11.96,4.92 C11.43,4.92 11,4.49 11,3.96 C11,3.43 11.43,3 11.96,3" id="Fill-37"></path>
                    <path d="M8,6 C6.897,6 6,6.897 6,8 C6,9.103 6.897,10 8,10 C9.103,10 10,9.103 10,8 C10,6.897 9.103,6 8,6 M8,12 C5.794,12 4,10.206 4,8 C4,5.794 5.794,4 8,4 C10.206,4 12,5.794 12,8 C12,10.206 10.206,12 8,12" id="Fill-38"></path>
                    <path d="M4,2 C3.065,2 2,3.065 2,4 L2,12 C2,12.953 3.047,14 4,14 L12,14 C12.935,14 14,12.935 14,12 L14,4 C14,3.065 12.935,2 12,2 L4,2 Z M12,16 L4,16 C1.944,16 0,14.056 0,12 L0,4 C0,1.944 1.944,0 4,0 L12,0 C14.056,0 16,1.944 16,4 L16,12 C16,14.056 14.056,16 12,16 L12,16 Z" id="Fill-39"></path>
                </g>
            </g>
        </g>
    </g>
</svg>