<svg xmlns="http://www.w3.org/2000/svg" width="45" height="45" viewBox="0 0 45 45"><defs><style>.a{fill:none;stroke:#e6e6e6;stroke-miterlimit:10;}.b{fill:#bcbcbc;}</style></defs><g transform="translate(0.5 0.5)"><circle class="a" cx="22" cy="22" r="22"/><g transform="translate(14 14)"><path class="b" d="M.96,0A.96.96,0,1,1,0,.96.96.96,0,0,1,.96,0" transform="translate(11 3)"/><path class="b" d="M4,8A4,4,0,1,1,8,4,4,4,0,0,1,4,8ZM4,2A2,2,0,1,0,6,4,2,2,0,0,0,4,2Z" transform="translate(4 4)"/><path class="b" d="M12,16H4a4.214,4.214,0,0,1-4-4V4A4.213,4.213,0,0,1,4,0h8a4.214,4.214,0,0,1,4,4v8A4.214,4.214,0,0,1,12,16ZM4,2A2.265,2.265,0,0,0,2,4v8a2.231,2.231,0,0,0,2,2h8a2.266,2.266,0,0,0,2-2V4a2.266,2.266,0,0,0-2-2Z"/></g></g></svg>