<svg xmlns="http://www.w3.org/2000/svg" xmlns:xlink="http://www.w3.org/1999/xlink" width="199.947" height="141.788" viewBox="0 0 199.947 141.788"><defs><style>.a{fill:none;}.b{fill:#f1f2f2;}.c{fill:#494848;}.d{fill:#cdcccc;}.e{clip-path:url(#a);}.f{fill:#7f8aa0;}.g{fill:#f7f7f5;}.h{fill:#ff7211;}.i{fill:#e6e7e8;}.j{fill:#bcbec0;}</style><clipPath id="a"><path class="a" d="M0,141.788H199.947V0H0Z" transform="translate(0 0.119)"/></clipPath></defs><g transform="translate(0 -0.119)"><path class="b" d="M86.452,19.57h0A3.938,3.938,0,0,0,82.4,15.758H60.607a3.588,3.588,0,0,1-3.692-3.474,3.588,3.588,0,0,1,3.692-3.473h1.441A4.55,4.55,0,0,0,66.73,4.405,4.55,4.55,0,0,0,62.047,0H7.024A4.55,4.55,0,0,0,2.342,4.405,4.55,4.55,0,0,0,7.024,8.811H36.112A3.588,3.588,0,0,1,39.8,12.284,3.588,3.588,0,0,0,43.5,15.758h.991a3.938,3.938,0,0,1,4.053,3.813,3.938,3.938,0,0,0,4.052,3.812h.63a2.461,2.461,0,1,1,0,4.914H3.231a3.045,3.045,0,1,0,0,6.079H13.5a4.211,4.211,0,0,1,4.334,4.077,4.212,4.212,0,0,0,4.334,4.077,2.789,2.789,0,0,1,2.87,2.7v1.959a4.813,4.813,0,0,0,4.953,4.66H33.23a2.631,2.631,0,1,1,0,5.253H16.435a2.377,2.377,0,1,0,0,4.744H37.1a2.625,2.625,0,0,1,2.7,2.542,2.625,2.625,0,0,0,2.7,2.542H83.75a2.546,2.546,0,1,0,0-5.083H60.967a2.45,2.45,0,0,1-2.522-2.372A2.45,2.45,0,0,0,55.924,57.1H47.278a2.631,2.631,0,1,1,0-5.253H78.437a4.668,4.668,0,1,0,0-9.319h-34.3a4.085,4.085,0,1,1,0-8.154H63.409a3.139,3.139,0,0,0,3.231-3.039v-.244a2.888,2.888,0,0,0-2.972-2.8,2.461,2.461,0,1,1,0-4.914H82.4a3.938,3.938,0,0,0,4.052-3.812" transform="translate(4.354 33.452)"/><path class="c" d="M30.119,0H1.19a1.193,1.193,0,0,0,0,2.387H30.119a1.193,1.193,0,0,0,0-2.387" transform="translate(17.499 76.449)"/><path class="c" d="M12.738,0H1.19a1.193,1.193,0,0,0,0,2.387H12.738a1.193,1.193,0,0,0,0-2.387" transform="translate(52.142 76.449)"/><path class="c" d="M33.69,0H1.19a1.193,1.193,0,0,0,0,2.387h32.5A1.193,1.193,0,0,0,33.69,0" transform="translate(0 85.399)"/><path class="c" d="M17.143,0H1.19a1.193,1.193,0,0,0,0,2.387H17.143a1.193,1.193,0,0,0,0-2.387" transform="translate(17.499 93.752)"/><path class="b" d="M86.452,19.57h0A3.938,3.938,0,0,0,82.4,15.758H60.607a3.588,3.588,0,0,1-3.692-3.474,3.588,3.588,0,0,1,3.692-3.473h1.441A4.55,4.55,0,0,0,66.73,4.405,4.55,4.55,0,0,0,62.047,0H7.024A4.55,4.55,0,0,0,2.342,4.405,4.55,4.55,0,0,0,7.024,8.811H36.112A3.588,3.588,0,0,1,39.8,12.284,3.588,3.588,0,0,0,43.5,15.758h.991a3.938,3.938,0,0,1,4.053,3.813,3.938,3.938,0,0,0,4.052,3.812h.63a2.461,2.461,0,1,1,0,4.914H3.231a3.045,3.045,0,1,0,0,6.079H13.5a4.211,4.211,0,0,1,4.334,4.077,4.212,4.212,0,0,0,4.334,4.077,2.789,2.789,0,0,1,2.87,2.7v1.959a4.813,4.813,0,0,0,4.953,4.66H33.23a2.631,2.631,0,1,1,0,5.253H16.435a2.377,2.377,0,1,0,0,4.744H37.1a2.625,2.625,0,0,1,2.7,2.542,2.625,2.625,0,0,0,2.7,2.542H83.75a2.546,2.546,0,1,0,0-5.083H60.967a2.45,2.45,0,0,1-2.522-2.372A2.45,2.45,0,0,0,55.924,57.1H47.278a2.631,2.631,0,1,1,0-5.253H78.437a4.668,4.668,0,1,0,0-9.319h-34.3a4.085,4.085,0,1,1,0-8.154H63.409a3.139,3.139,0,0,0,3.231-3.039v-.244a2.888,2.888,0,0,0-2.972-2.8,2.461,2.461,0,1,1,0-4.914H82.4a3.938,3.938,0,0,0,4.052-3.812" transform="translate(112.807 11.734)"/><path class="b" d="M86.452,19.57h0A3.938,3.938,0,0,0,82.4,15.758H60.607a3.588,3.588,0,0,1-3.692-3.474,3.588,3.588,0,0,1,3.692-3.473h1.441A4.55,4.55,0,0,0,66.73,4.405,4.55,4.55,0,0,0,62.047,0H7.024A4.55,4.55,0,0,0,2.342,4.405,4.55,4.55,0,0,0,7.024,8.811H36.112A3.588,3.588,0,0,1,39.8,12.284,3.588,3.588,0,0,0,43.5,15.758h.991a3.938,3.938,0,0,1,4.053,3.813,3.938,3.938,0,0,0,4.052,3.812h.63a2.461,2.461,0,1,1,0,4.914H3.231a3.045,3.045,0,1,0,0,6.079H13.5a4.211,4.211,0,0,1,4.334,4.077,4.212,4.212,0,0,0,4.334,4.077,2.789,2.789,0,0,1,2.87,2.7v1.959a4.813,4.813,0,0,0,4.953,4.66H33.23a2.631,2.631,0,1,1,0,5.253H16.435a2.377,2.377,0,1,0,0,4.744H37.1a2.625,2.625,0,0,1,2.7,2.542,2.625,2.625,0,0,0,2.7,2.542H83.75a2.546,2.546,0,1,0,0-5.083H60.967a2.45,2.45,0,0,1-2.522-2.372A2.45,2.45,0,0,0,55.924,57.1H47.278a2.631,2.631,0,1,1,0-5.253H78.437a4.668,4.668,0,1,0,0-9.319h-34.3a4.085,4.085,0,1,1,0-8.154H63.409a3.139,3.139,0,0,0,3.231-3.039v-.244a2.888,2.888,0,0,0-2.972-2.8,2.461,2.461,0,1,1,0-4.914H82.4a3.938,3.938,0,0,0,4.052-3.812" transform="translate(50.069 62.568)"/><path class="c" d="M.347.352a1.192,1.192,0,1,0,1.683,0,1.2,1.2,0,0,0-1.683,0" transform="translate(95.526 2.528)"/><path class="c" d="M1.19,0a1.193,1.193,0,1,0,1.19,1.193A1.192,1.192,0,0,0,1.19,0" transform="translate(101.307 0.119)"/><path class="c" d="M1.184,0A1.193,1.193,0,0,0,1.19,2.387H1.2A1.193,1.193,0,0,0,1.184,0" transform="translate(93.152 8.336)"/><path class="c" d="M.343.356A1.194,1.194,0,0,0,.356,2.044a1.19,1.19,0,0,0,1.683-.013A1.192,1.192,0,0,0,.343.356" transform="translate(95.586 14.118)"/><path class="c" d="M1.177,0a1.193,1.193,0,0,0,.012,2.387H1.2A1.193,1.193,0,0,0,1.177,0" transform="translate(101.393 16.467)"/><path class="c" d="M1.173,0a1.193,1.193,0,0,0,.018,2.387H1.21A1.193,1.193,0,0,0,1.173,0" transform="translate(109.461 8.165)"/><path class="c" d="M.338.36A1.2,1.2,0,0,0,.36,2.048a1.189,1.189,0,0,0,1.683-.021A1.192,1.192,0,0,0,.338.36" transform="translate(107.148 13.997)"/><path class="c" d="M.334.365a1.2,1.2,0,0,0,.03,1.687,1.187,1.187,0,0,0,1.683-.03A1.192,1.192,0,0,0,.334.365" transform="translate(106.967 2.408)"/><path class="d" d="M0,7.052A8.928,8.928,0,0,0,8.917,15.99H118.88A8.928,8.928,0,0,0,127.8,7.052V0H0Z" transform="translate(39.881 95.608)"/><path class="a" d="M0,141.788H199.947V0H0Z" transform="translate(0 0.119)"/><g class="e"><path class="d" d="M0,23.818H18.863V0H0Z" transform="translate(94.011 111.353)"/><path class="f" d="M4.44,0A5.217,5.217,0,0,0,0,2.381v.244H57.381V1.362A5.2,5.2,0,0,0,53.79,0Z" transform="translate(74.881 135.225)"/><path class="g" d="M117.653,0H10.169A10.181,10.181,0,0,0,0,10.193V73.785H127.822V10.193A10.181,10.181,0,0,0,117.653,0" transform="translate(39.857 21.823)"/><path class="c" d="M119.43,92.162H10.773A10.8,10.8,0,0,1,0,81.364V10.8A10.8,10.8,0,0,1,10.773,0H119.43A10.8,10.8,0,0,1,130.2,10.8V81.364A10.8,10.8,0,0,1,119.43,92.162ZM10.773,2.387A8.411,8.411,0,0,0,2.381,10.8V81.364a8.411,8.411,0,0,0,8.392,8.411H119.43a8.411,8.411,0,0,0,8.392-8.411V10.8a8.411,8.411,0,0,0-8.392-8.411Z" transform="translate(38.666 20.629)"/><path class="c" d="M19.4,0a1.192,1.192,0,0,0-1.19,1.193V23.573H2.381V1.193A1.19,1.19,0,1,0,0,1.193V24.766a1.192,1.192,0,0,0,1.19,1.193H19.4a1.192,1.192,0,0,0,1.19-1.193V1.193A1.192,1.192,0,0,0,19.4,0" transform="translate(93.471 110.404)"/><path class="c" d="M61.545,7.93H1.191A1.193,1.193,0,0,1,0,6.737,6.736,6.736,0,0,1,6.721,0H56.014a6.736,6.736,0,0,1,6.721,6.737A1.193,1.193,0,0,1,61.545,7.93ZM6.721,2.387A4.361,4.361,0,0,0,2.547,5.543H60.188a4.362,4.362,0,0,0-4.174-3.156Z" transform="translate(72.4 133.977)"/><path class="c" d="M128.929,0H1.19a1.193,1.193,0,0,0,0,2.387H128.929a1.193,1.193,0,0,0,0-2.387" transform="translate(38.691 94.414)"/><path class="c" d="M4.167,8.355A4.177,4.177,0,1,1,8.335,4.177,4.177,4.177,0,0,1,4.167,8.355Zm0-5.968a1.791,1.791,0,1,0,1.786,1.79A1.79,1.79,0,0,0,4.167,2.387Z" transform="translate(99.6 99.173)"/><path class="h" d="M3.433,0A3.441,3.441,0,1,0,6.866,3.441,3.437,3.437,0,0,0,3.433,0" transform="translate(154.067 39.245)"/><path class="c" d="M4.848,9.718A4.859,4.859,0,1,1,9.7,4.859,4.859,4.859,0,0,1,4.848,9.718Zm0-7.331A2.473,2.473,0,1,0,7.315,4.859,2.472,2.472,0,0,0,4.848,2.387Z" transform="translate(149.954 37.767)"/><path class="h" d="M3.433,0A3.441,3.441,0,1,0,6.866,3.441,3.437,3.437,0,0,0,3.433,0" transform="translate(102.288 6.371)"/><path class="c" d="M4.848,9.718A4.859,4.859,0,1,1,9.7,4.859,4.859,4.859,0,0,1,4.848,9.718Zm0-7.331A2.473,2.473,0,1,0,7.315,4.859,2.472,2.472,0,0,0,4.848,2.387Z" transform="translate(98.175 4.894)"/><path class="c" d="M1.19,0a1.193,1.193,0,1,0,1.19,1.193A1.191,1.191,0,0,0,1.19,0" transform="translate(128.749 119.051)"/><path class="c" d="M1.19,0a1.193,1.193,0,1,0,1.19,1.193A1.192,1.192,0,0,0,1.19,0" transform="translate(121.844 119.051)"/><path class="c" d="M1.19,0a1.193,1.193,0,1,0,1.19,1.193A1.192,1.192,0,0,0,1.19,0" transform="translate(135.654 119.051)"/><path class="c" d="M1.19,0a1.193,1.193,0,1,0,1.19,1.193A1.192,1.192,0,0,0,1.19,0" transform="translate(156.368 119.051)"/><path class="c" d="M1.19,0a1.193,1.193,0,1,0,1.19,1.193A1.192,1.192,0,0,0,1.19,0" transform="translate(149.463 119.051)"/><path class="c" d="M1.19,0a1.193,1.193,0,1,0,1.19,1.193A1.192,1.192,0,0,0,1.19,0" transform="translate(142.558 119.051)"/><path class="c" d="M1.19,0A1.192,1.192,0,0,0,0,1.193V7.756a1.19,1.19,0,1,0,2.381,0V1.193A1.192,1.192,0,0,0,1.19,0" transform="translate(50.715 69.356)"/><path class="c" d="M7.738,0H1.19a1.193,1.193,0,0,0,0,2.387H7.738A1.193,1.193,0,0,0,7.738,0" transform="translate(47.381 72.697)"/><path class="c" d="M8.333,16.706a1.186,1.186,0,0,1-1.1-.734l-1.916-4.6L.732,9.454a1.194,1.194,0,0,1,0-2.2l4.587-1.92L7.235.734a1.189,1.189,0,0,1,2.2,0l1.916,4.6,4.587,1.92a1.194,1.194,0,0,1,0,2.2l-4.587,1.921-1.916,4.6A1.188,1.188,0,0,1,8.333,16.706Zm0-12.416L7.328,6.7a1.191,1.191,0,0,1-.64.642L4.28,8.353,6.688,9.361a1.191,1.191,0,0,1,.64.642l1.005,2.414L9.339,10a1.187,1.187,0,0,1,.64-.642l2.408-1.008L9.979,7.345a1.187,1.187,0,0,1-.64-.642Z" transform="translate(14.077 35.488)"/><path class="i" d="M26.548,58.829a1.43,1.43,0,0,1-1.429,1.432H1.429A1.43,1.43,0,0,1,0,58.829V1.432A1.43,1.43,0,0,1,1.429,0h23.69a1.43,1.43,0,0,1,1.429,1.432Z" transform="translate(45.357 30.455)"/><path class="i" d="M26.548,58.829a1.43,1.43,0,0,1-1.429,1.432H1.429A1.43,1.43,0,0,1,0,58.829V1.432A1.43,1.43,0,0,1,1.429,0h23.69a1.43,1.43,0,0,1,1.429,1.432Z" transform="translate(75.238 30.693)"/><path class="i" d="M26.548,58.829a1.43,1.43,0,0,1-1.429,1.432H1.429A1.43,1.43,0,0,1,0,58.829V1.432A1.43,1.43,0,0,1,1.429,0h23.69a1.43,1.43,0,0,1,1.429,1.432Z" transform="translate(105.715 30.813)"/><path class="i" d="M26.548,58.829a1.43,1.43,0,0,1-1.429,1.432H1.429A1.43,1.43,0,0,1,0,58.829V1.432A1.43,1.43,0,0,1,1.429,0h23.69a1.43,1.43,0,0,1,1.429,1.432Z" transform="translate(135.596 31.051)"/><path class="c" d="M30.119,0H1.19a1.193,1.193,0,0,0,0,2.387H30.119a1.193,1.193,0,0,0,0-2.387" transform="translate(151.376 66.069)"/><path class="c" d="M12.738,0H1.19a1.193,1.193,0,0,0,0,2.387H12.738a1.193,1.193,0,0,0,0-2.387" transform="translate(186.019 66.069)"/><path class="c" d="M33.69,0H1.19a1.193,1.193,0,0,0,0,2.387h32.5A1.193,1.193,0,0,0,33.69,0" transform="translate(151.376 75.019)"/><path class="c" d="M17.143,0H1.19a1.193,1.193,0,0,0,0,2.387H17.143a1.193,1.193,0,0,0,0-2.387" transform="translate(151.376 83.372)"/><path class="h" d="M22.5,9.205c0,.124-.6.221-1.267.221H1.208C.541,9.427,0,9.329,0,9.205V.224C0,.1.541,0,1.208,0H21.233C21.9,0,22.5.1,22.5.224Z" transform="translate(47.381 32.603)"/><path class="h" d="M22.5,9.205c0,.124-.6.221-1.267.221H1.208C.541,9.427,0,9.329,0,9.205V.224C0,.1.541,0,1.208,0H21.233C21.9,0,22.5.1,22.5.224Z" transform="translate(47.381 44.535)"/><path class="h" d="M22.5,9.205c0,.124-.6.221-1.267.221H1.208C.541,9.427,0,9.329,0,9.205V.224C0,.1.541,0,1.208,0H21.233C21.9,0,22.5.1,22.5.224Z" transform="translate(47.381 56.468)"/><path class="h" d="M22.5,9.205c0,.124-.6.221-1.267.221H1.208C.541,9.427,0,9.329,0,9.205V.224C0,.1.541,0,1.208,0H21.233C21.9,0,22.5.1,22.5.224Z" transform="translate(107.738 33.08)"/><path class="j" d="M22.5,9.205c0,.124-.6.221-1.267.221H1.208C.541,9.427,0,9.329,0,9.205V.224C0,.1.541,0,1.208,0H21.233C21.9,0,22.5.1,22.5.224Z" transform="translate(137.381 33.319)"/><path class="j" d="M22.5,9.205c0,.124-.6.221-1.267.221H1.208C.541,9.427,0,9.329,0,9.205V.224C0,.1.541,0,1.208,0H21.233C21.9,0,22.5.1,22.5.224Z" transform="translate(137.5 45.251)"/><path class="h" d="M3.433,0A3.441,3.441,0,1,0,6.866,3.441,3.437,3.437,0,0,0,3.433,0" transform="translate(85.855 79.278)"/><path class="c" d="M4.848,9.718A4.859,4.859,0,1,1,9.7,4.859,4.859,4.859,0,0,1,4.848,9.718Zm0-7.331A2.473,2.473,0,1,0,7.315,4.859,2.472,2.472,0,0,0,4.848,2.387Z" transform="translate(81.742 77.8)"/><path class="h" d="M19.524,4.773H2.381A2.387,2.387,0,0,1,2.381,0H19.524a2.387,2.387,0,0,1,0,4.773" transform="translate(93.334 61.719)"/><path class="c" d="M1.19,0A1.192,1.192,0,0,0,0,1.193V7.756a1.19,1.19,0,1,0,2.381,0V1.193A1.192,1.192,0,0,0,1.19,0" transform="translate(156.564 8.011)"/><path class="c" d="M7.738,0H1.19a1.193,1.193,0,0,0,0,2.387H7.738A1.193,1.193,0,0,0,7.738,0" transform="translate(153.23 11.353)"/><path class="c" d="M1.19,0A1.192,1.192,0,0,0,0,1.193V7.756a1.19,1.19,0,1,0,2.381,0V1.193A1.192,1.192,0,0,0,1.19,0" transform="translate(49.783 116.481)"/><path class="c" d="M7.738,0H1.19a1.193,1.193,0,0,0,0,2.387H7.738A1.193,1.193,0,0,0,7.738,0" transform="translate(46.45 119.822)"/></g></g></svg>