<svg xmlns="http://www.w3.org/2000/svg" xmlns:xlink="http://www.w3.org/1999/xlink" width="188" height="143" viewBox="0 0 188 143"><defs><style>.a{fill:none;}.b{fill:#494848;}.c{fill:#f1f2f2;}.d{fill:#cdcccc;}.e{clip-path:url(#a);}.f{fill:#7f8aa0;}.g{fill:#f7f7f5;}.h{fill:#e6e7e8;}.i{fill:#d1d3d4;}.j{fill:#ff7211;}</style><clipPath id="a"><path class="a" d="M0,143H188V0H0Z"/></clipPath></defs><path class="b" d="M22.824,0H1.176A1.1,1.1,0,0,0,0,1,1.1,1.1,0,0,0,1.176,2H22.824A1.1,1.1,0,0,0,24,1a1.1,1.1,0,0,0-1.176-1" transform="translate(128 16)"/><path class="b" d="M12.833,0H1.167A1.093,1.093,0,0,0,0,1,1.093,1.093,0,0,0,1.167,2H12.833A1.093,1.093,0,0,0,14,1a1.093,1.093,0,0,0-1.167-1" transform="translate(156 16)"/><path class="b" d="M11.785,0H1.215A1.123,1.123,0,0,0,0,1,1.123,1.123,0,0,0,1.215,2h10.57A1.123,1.123,0,0,0,13,1a1.123,1.123,0,0,0-1.215-1" transform="translate(175 16)"/><path class="b" d="M13.819,0H1.181A1.1,1.1,0,0,0,0,1,1.1,1.1,0,0,0,1.181,2H13.819A1.1,1.1,0,0,0,15,1a1.1,1.1,0,0,0-1.181-1" transform="translate(128 27)"/><path class="b" d="M18.773,0H1.227A1.131,1.131,0,0,0,0,1,1.131,1.131,0,0,0,1.227,2H18.773A1.131,1.131,0,0,0,20,1a1.131,1.131,0,0,0-1.227-1" transform="translate(150 27)"/><path class="b" d="M18.78,0H1.22A1.126,1.126,0,0,0,0,1,1.126,1.126,0,0,0,1.22,2H18.78A1.126,1.126,0,0,0,20,1a1.126,1.126,0,0,0-1.22-1" transform="translate(128 37)"/><path class="c" d="M87,19.591h0a3.954,3.954,0,0,0-4.078-3.817H60.991A3.6,3.6,0,0,1,57.275,12.3,3.6,3.6,0,0,1,60.991,8.82h1.45a4.569,4.569,0,0,0,4.713-4.41A4.569,4.569,0,0,0,62.441,0H7.069A4.569,4.569,0,0,0,2.356,4.41,4.569,4.569,0,0,0,7.069,8.82H36.341A3.6,3.6,0,0,1,40.056,12.3a3.6,3.6,0,0,0,3.716,3.477h1a3.954,3.954,0,0,1,4.078,3.817,3.954,3.954,0,0,0,4.078,3.816h.634a2.465,2.465,0,1,1,0,4.919H3.251a3.049,3.049,0,1,0,0,6.085H13.582a4.228,4.228,0,0,1,4.361,4.082,4.229,4.229,0,0,0,4.361,4.082,2.8,2.8,0,0,1,2.889,2.7v1.961A4.832,4.832,0,0,0,30.178,51.9h3.263a2.635,2.635,0,1,1,0,5.258h-16.9a2.38,2.38,0,1,0,0,4.749h20.8a2.636,2.636,0,0,1,2.719,2.544A2.636,2.636,0,0,0,42.775,67H84.281a2.55,2.55,0,1,0,0-5.089H61.353a2.46,2.46,0,0,1-2.538-2.375,2.46,2.46,0,0,0-2.537-2.375h-8.7a2.635,2.635,0,1,1,0-5.258H78.934a4.675,4.675,0,1,0,0-9.329H44.418a4.09,4.09,0,1,1,0-8.163H63.811a3.152,3.152,0,0,0,3.251-3.042v-.244a2.9,2.9,0,0,0-2.991-2.8,2.465,2.465,0,1,1,0-4.919h18.85A3.954,3.954,0,0,0,87,19.591" transform="translate(14 22)"/><path class="c" d="M0,19.591H0a3.954,3.954,0,0,1,4.078-3.817H26.009A3.6,3.6,0,0,0,29.725,12.3,3.6,3.6,0,0,0,26.009,8.82h-1.45a4.569,4.569,0,0,1-4.713-4.41A4.569,4.569,0,0,1,24.559,0H79.931a4.569,4.569,0,0,1,4.713,4.41,4.569,4.569,0,0,1-4.713,4.41H50.659A3.6,3.6,0,0,0,46.944,12.3a3.6,3.6,0,0,1-3.716,3.477h-1a3.954,3.954,0,0,0-4.078,3.817,3.954,3.954,0,0,1-4.078,3.816h-.634a2.465,2.465,0,1,0,0,4.919H83.749a3.049,3.049,0,1,1,0,6.085H73.418a4.228,4.228,0,0,0-4.361,4.082,4.229,4.229,0,0,1-4.361,4.082,2.8,2.8,0,0,0-2.889,2.7v1.961A4.832,4.832,0,0,1,56.822,51.9H53.559a2.635,2.635,0,1,0,0,5.258h16.9a2.38,2.38,0,1,1,0,4.749h-20.8a2.636,2.636,0,0,0-2.719,2.544A2.636,2.636,0,0,1,44.225,67H2.719a2.55,2.55,0,1,1,0-5.089H25.647a2.46,2.46,0,0,0,2.538-2.375,2.46,2.46,0,0,1,2.537-2.375h8.7a2.635,2.635,0,1,0,0-5.258H8.066a4.675,4.675,0,1,1,0-9.329H42.582a4.09,4.09,0,1,0,0-8.163H23.189a3.152,3.152,0,0,1-3.251-3.042v-.244a2.9,2.9,0,0,1,2.991-2.8,2.465,2.465,0,1,0,0-4.919H4.078A3.954,3.954,0,0,1,0,19.591" transform="translate(98 65)"/><path class="c" d="M87,19.591h0a3.954,3.954,0,0,0-4.078-3.817H60.991A3.6,3.6,0,0,1,57.275,12.3,3.6,3.6,0,0,1,60.991,8.82h1.45a4.569,4.569,0,0,0,4.713-4.41A4.569,4.569,0,0,0,62.441,0H7.069A4.569,4.569,0,0,0,2.356,4.41,4.569,4.569,0,0,0,7.069,8.82H36.341A3.6,3.6,0,0,1,40.056,12.3a3.6,3.6,0,0,0,3.716,3.477h1a3.954,3.954,0,0,1,4.078,3.817,3.954,3.954,0,0,0,4.078,3.816h.634a2.465,2.465,0,1,1,0,4.919H3.251a3.049,3.049,0,1,0,0,6.085H13.582a4.228,4.228,0,0,1,4.361,4.082,4.229,4.229,0,0,0,4.361,4.082,2.8,2.8,0,0,1,2.889,2.7v1.961A4.832,4.832,0,0,0,30.178,51.9h3.263a2.635,2.635,0,1,1,0,5.258h-16.9a2.38,2.38,0,1,0,0,4.749h20.8a2.636,2.636,0,0,1,2.719,2.544A2.636,2.636,0,0,0,42.775,67H84.281a2.55,2.55,0,1,0,0-5.089H61.353a2.46,2.46,0,0,1-2.538-2.375,2.46,2.46,0,0,0-2.537-2.375h-8.7a2.635,2.635,0,1,1,0-5.258H78.934a4.675,4.675,0,1,0,0-9.329H44.418a4.09,4.09,0,1,1,0-8.163H63.811a3.152,3.152,0,0,0,3.251-3.042v-.244a2.9,2.9,0,0,0-2.991-2.8,2.465,2.465,0,1,1,0-4.919h18.85A3.954,3.954,0,0,0,87,19.591" transform="translate(41 63)"/><path class="d" d="M0,7.056A8.938,8.938,0,0,0,8.932,16H119.068A8.938,8.938,0,0,0,128,7.056V0H0Z" transform="translate(31 97)"/><path class="a" d="M0,143H188V0H0Z"/><g class="e"><path class="d" d="M0,24H19V0H0Z" transform="translate(85 112)"/><path class="f" d="M4.488,0A5.149,5.149,0,0,0,0,2.721V3H58V1.556A4.932,4.932,0,0,0,54.371,0Z" transform="translate(66 136)"/><path class="g" d="M117.817,0H10.183A10.2,10.2,0,0,0,0,10.223V74H128V10.223A10.2,10.2,0,0,0,117.817,0" transform="translate(31 22)"/><path class="h" d="M57,28.5A28.5,28.5,0,1,1,28.5,0,28.5,28.5,0,0,1,57,28.5" transform="translate(67 31)"/><path class="i" d="M29,58a29.331,29.331,0,0,1-3.765-.242.6.6,0,0,1,.077-1.189.607.607,0,0,1,.077.005,28.048,28.048,0,0,0,11.989-1.051.6.6,0,1,1,.359,1.138A28.98,28.98,0,0,1,29,58Zm-6.127-.662a.632.632,0,0,1-.129-.014c-.433-.1-.847-.2-1.229-.3a.6.6,0,0,1,.307-1.154c.383.1.779.2,1.178.286a.6.6,0,0,1-.127,1.18ZM38.731,56.29a.6.6,0,0,1-.542-.849.591.591,0,0,1,.337-.309,27.74,27.74,0,0,0,4.388-2.051.6.6,0,0,1,.6,1.032,28.843,28.843,0,0,1-4.576,2.14A.587.587,0,0,1,38.731,56.29ZM14.816,54.211a.59.59,0,0,1-.3-.08,29.081,29.081,0,0,1-4.14-2.9.6.6,0,1,1,.766-.914,28.01,28.01,0,0,0,3.971,2.78.6.6,0,0,1-.3,1.113ZM9.829,50.554a.6.6,0,0,1-.4-.157A29.251,29.251,0,0,1,2.212,40.129a.6.6,0,0,1,.322-.78.588.588,0,0,1,.229-.046.6.6,0,0,1,.552.368,28.034,28.034,0,0,0,6.916,9.846.6.6,0,0,1,.038.843A.6.6,0,0,1,9.829,50.554Zm39.261-.878a.6.6,0,0,1-.423-1.018c.293-.293.576-.588.84-.877a.6.6,0,1,1,.879.806c-.285.31-.579.617-.874.913A.593.593,0,0,1,49.09,49.676Zm2.449-2.793a.6.6,0,0,1-.59-.518.6.6,0,0,1,.118-.442,27.509,27.509,0,0,0,5.088-10.905.6.6,0,0,1,.582-.468.514.514,0,0,1,.129.014.589.589,0,0,1,.374.262.583.583,0,0,1,.08.449A28.679,28.679,0,0,1,52.012,46.65.591.591,0,0,1,51.539,46.883ZM1.913,38.172a.6.6,0,0,1-.569-.418C1.223,37.37,1.1,36.962.99,36.54a.6.6,0,0,1,.422-.731.667.667,0,0,1,.155-.021.6.6,0,0,1,.576.442c.1.377.215.768.34,1.164a.6.6,0,0,1-.04.455.592.592,0,0,1-.35.294A.538.538,0,0,1,1.913,38.172Zm55.064-3.644a.473.473,0,0,1-.1-.009.6.6,0,0,1-.484-.691A28.267,28.267,0,0,0,56.806,29v-.069a.672.672,0,0,1,.2-.472.563.563,0,0,1,.4-.174.637.637,0,0,1,.6.641V29a29.652,29.652,0,0,1-.435,5.034A.6.6,0,0,1,56.977,34.528ZM.6,29.633a.6.6,0,0,1-.6-.6v-.03a28.837,28.837,0,0,1,.429-5,.6.6,0,0,1,.587-.5.462.462,0,0,1,.1.009.6.6,0,0,1,.486.69A28.25,28.25,0,0,0,1.193,29v.036A.6.6,0,0,1,.6,29.633Zm.66-6.147a.632.632,0,0,1-.129-.014.6.6,0,0,1-.455-.711A28.684,28.684,0,0,1,5.965,11.38a.6.6,0,0,1,1.066.284.614.614,0,0,1-.118.441A27.5,27.5,0,0,0,1.839,23.017.6.6,0,0,1,1.256,23.486Zm55.167-1.309a.6.6,0,0,1-.575-.441c-.095-.355-.21-.747-.342-1.164a.6.6,0,0,1,.039-.455.593.593,0,0,1,.349-.294.513.513,0,0,1,.181-.028.6.6,0,0,1,.569.416c.114.362.234.771.356,1.214a.6.6,0,0,1-.421.732A.59.59,0,0,1,56.424,22.177Zm-1.2-3.514a.6.6,0,0,1-.551-.366,28.046,28.046,0,0,0-6.93-9.838.6.6,0,0,1,.4-1.038.593.593,0,0,1,.4.157,29.227,29.227,0,0,1,7.226,10.259.6.6,0,0,1-.32.78A.583.583,0,0,1,55.223,18.663ZM8.03,10.439a.6.6,0,0,1-.441-1c.278-.3.572-.612.874-.915a.6.6,0,1,1,.845.843c-.268.268-.55.563-.838.877A.6.6,0,0,1,8.03,10.439ZM47.211,7.8a.6.6,0,0,1-.382-.139,27.755,27.755,0,0,0-3.974-2.776.6.6,0,1,1,.6-1.034,28.526,28.526,0,0,1,4.144,2.894A.6.6,0,0,1,47.211,7.8ZM14.756,5.018a.6.6,0,0,1-.3-1.112A27.887,27.887,0,0,1,19.031,1.76a.725.725,0,0,1,.206-.037.6.6,0,0,1,.2,1.157,26.686,26.686,0,0,0-4.385,2.056A.6.6,0,0,1,14.756,5.018Zm5.652-2.5A.6.6,0,0,1,19.84,2.1a.6.6,0,0,1,.039-.454.591.591,0,0,1,.35-.294A28.969,28.969,0,0,1,29,0a29.759,29.759,0,0,1,3.73.238.6.6,0,0,1-.074,1.189.575.575,0,0,1-.078-.005A28.033,28.033,0,0,0,20.588,2.489.477.477,0,0,1,20.408,2.516ZM36.3,2.139a.456.456,0,0,1-.154-.02c-.319-.087-.716-.183-1.178-.284A.6.6,0,0,1,35.221.669c.414.091.828.191,1.229.3a.587.587,0,0,1,.363.277.6.6,0,0,1-.515.9Z" transform="translate(66 30)"/><path class="b" d="M120.161,92H10.839A10.821,10.821,0,0,1,0,81.22V10.779A10.821,10.821,0,0,1,10.839,0H120.161A10.822,10.822,0,0,1,131,10.779V81.22A10.822,10.822,0,0,1,120.161,92ZM10.839,2.382a8.43,8.43,0,0,0-8.443,8.4V81.22a8.43,8.43,0,0,0,8.443,8.4H120.161a8.43,8.43,0,0,0,8.444-8.4V10.779a8.43,8.43,0,0,0-8.444-8.4Z" transform="translate(30 21)"/><path class="b" d="M19.786,0a1.2,1.2,0,0,0-1.214,1.2V23.61H2.428V1.2A1.2,1.2,0,0,0,1.214,0,1.2,1.2,0,0,0,0,1.2V24.8A1.2,1.2,0,0,0,1.214,26H19.786A1.2,1.2,0,0,0,21,24.8V1.2A1.2,1.2,0,0,0,19.786,0" transform="translate(85 111)"/><path class="b" d="M61.8,8H1.2A1.2,1.2,0,0,1,0,6.8,6.78,6.78,0,0,1,6.749,0h49.5A6.78,6.78,0,0,1,63,6.8,1.2,1.2,0,0,1,61.8,8ZM6.749,2.408A4.383,4.383,0,0,0,2.558,5.593H60.442a4.383,4.383,0,0,0-4.191-3.185Z" transform="translate(64 135)"/><path class="b" d="M129.8,0H1.2A1.113,1.113,0,0,0,0,1,1.113,1.113,0,0,0,1.2,2H129.8A1.113,1.113,0,0,0,131,1a1.113,1.113,0,0,0-1.2-1" transform="translate(30 96)"/><path class="b" d="M4,8A4,4,0,1,1,8,4,4,4,0,0,1,4,8ZM4,2.285A1.715,1.715,0,1,0,5.715,4,1.716,1.716,0,0,0,4,2.285Z" transform="translate(91 100)"/><path class="j" d="M24.5,49A24.5,24.5,0,1,1,49,24.5,24.528,24.528,0,0,1,24.5,49Zm0-44.242A19.743,19.743,0,1,0,44.243,24.5,19.765,19.765,0,0,0,24.5,4.757Z" transform="translate(71 35)"/><path class="j" d="M3.5,0A3.5,3.5,0,1,0,7,3.5,3.5,3.5,0,0,0,3.5,0" transform="translate(120 82)"/><path class="b" d="M5,10a5,5,0,1,1,5-5A5.006,5.006,0,0,1,5,10ZM5,2.456A2.544,2.544,0,1,0,7.545,5,2.547,2.547,0,0,0,5,2.456Z" transform="translate(116 80)"/><path class="b" d="M1.179,0H29.821A1.1,1.1,0,0,1,31,1a1.1,1.1,0,0,1-1.179,1H1.179A1.1,1.1,0,0,1,0,1,1.1,1.1,0,0,1,1.179,0" transform="translate(18 69)"/><path class="b" d="M1.2,0H12.8A1.112,1.112,0,0,1,14,1a1.112,1.112,0,0,1-1.2,1H1.2A1.112,1.112,0,0,1,0,1,1.112,1.112,0,0,1,1.2,0" transform="translate(0 69)"/><path class="b" d="M1.195,0H33.805A1.11,1.11,0,0,1,35,1a1.11,1.11,0,0,1-1.195,1H1.195A1.11,1.11,0,0,1,0,1,1.11,1.11,0,0,1,1.195,0" transform="translate(14 78)"/><path class="b" d="M1.169,0H16.831A1.094,1.094,0,0,1,18,1a1.094,1.094,0,0,1-1.169,1H1.169A1.094,1.094,0,0,1,0,1,1.094,1.094,0,0,1,1.169,0" transform="translate(31 86)"/><path class="b" d="M0,1A1,1,0,1,0,1,0,1,1,0,0,0,0,1" transform="translate(168 74)"/><path class="b" d="M0,1A1,1,0,1,0,1,0,1,1,0,0,0,0,1" transform="translate(168 81)"/><path class="b" d="M0,1A1,1,0,1,0,1,0,1,1,0,0,0,0,1" transform="translate(168 67)"/><path class="b" d="M0,1A1,1,0,1,0,1,0,1,1,0,0,0,0,1" transform="translate(168 46)"/><path class="b" d="M0,1A1,1,0,1,0,1,0,1,1,0,0,0,0,1" transform="translate(168 53)"/><path class="b" d="M0,1A1,1,0,1,0,1,0,1,1,0,0,0,0,1" transform="translate(168 60)"/><path class="b" d="M1,0A1.114,1.114,0,0,0,0,1.2V7.8A1.114,1.114,0,0,0,1,9,1.114,1.114,0,0,0,2,7.8V1.2A1.114,1.114,0,0,0,1,0" transform="translate(15 24)"/><path class="b" d="M7.8,0H1.2A1.114,1.114,0,0,0,0,1,1.114,1.114,0,0,0,1.2,2H7.8A1.114,1.114,0,0,0,9,1,1.114,1.114,0,0,0,7.8,0" transform="translate(12 28)"/><path class="b" d="M8.5,17a1.212,1.212,0,0,1-1.121-.746L5.425,11.575.746,9.62a1.214,1.214,0,0,1,0-2.241L5.425,5.425,7.379.746a1.214,1.214,0,0,1,2.241,0l1.955,4.679,4.679,1.954a1.214,1.214,0,0,1,0,2.241l-4.679,1.955L9.62,16.254A1.21,1.21,0,0,1,8.5,17Zm0-12.635L7.474,6.821a1.207,1.207,0,0,1-.652.652L4.365,8.5,6.821,9.527a1.2,1.2,0,0,1,.652.652L8.5,12.635l1.026-2.457a1.222,1.222,0,0,1,.653-.652L12.635,8.5,10.178,7.474a1.209,1.209,0,0,1-.653-.652Z" transform="translate(43)"/><path class="j" d="M3.5,0A3.5,3.5,0,1,0,7,3.5,3.5,3.5,0,0,0,3.5,0" transform="translate(58 61)"/><path class="b" d="M5,10a5,5,0,1,1,5-5A5.006,5.006,0,0,1,5,10ZM5,2.456A2.544,2.544,0,1,0,7.545,5,2.547,2.547,0,0,0,5,2.456Z" transform="translate(54 59)"/><path class="j" d="M3.5,0A3.5,3.5,0,1,0,7,3.5,3.5,3.5,0,0,0,3.5,0" transform="translate(117 27)"/><path class="b" d="M5,10a5,5,0,1,1,5-5A5.006,5.006,0,0,1,5,10ZM5,2.456A2.544,2.544,0,1,0,7.545,5,2.547,2.547,0,0,0,5,2.456Z" transform="translate(112 26)"/><path class="b" d="M.291.3a1,1,0,1,0,1.414,0A1,1,0,0,0,.291.3" transform="translate(88 53)"/><path class="b" d="M1,0A1,1,0,1,0,2,1,1,1,0,0,0,1,0" transform="translate(94 51)"/><path class="b" d="M.995,0A1,1,0,0,0,1,2h0a1,1,0,1,0-.01-2" transform="translate(86 59)"/><path class="b" d="M.288.3A1,1,0,1,0,1.7.288,1,1,0,0,0,.288.3" transform="translate(88 65)"/><path class="b" d="M.989,0A1,1,0,0,0,1,2h.011A1,1,0,0,0,.989,0" transform="translate(94 67)"/><path class="b" d="M.985,0A1,1,0,0,0,1,2h.016A1,1,0,0,0,.985,0" transform="translate(102 59)"/><path class="b" d="M.284.3A1,1,0,1,0,1.7.284,1,1,0,0,0,.284.3" transform="translate(100 64)"/><path class="b" d="M.281.305A1,1,0,1,0,1.694.28,1,1,0,0,0,.281.305" transform="translate(100 53)"/><path class="j" d="M13.684,6.808,11,1.6A2.955,2.955,0,0,0,9.275.148,3.055,3.055,0,0,0,7,.307L1.644,2.919A2.881,2.881,0,0,0,.008,5.725,2.826,2.826,0,0,0,.316,6.8a3.017,3.017,0,0,0,4,1.29l2.7-1.315L8.362,9.4a3.018,3.018,0,0,0,4,1.29,2.858,2.858,0,0,0,1.327-3.885" transform="translate(109 59)"/><path class="j" d="M5.4.658l-4.375,3.7A2.923,2.923,0,0,0,.013,6.317,2.955,2.955,0,0,0,.64,8.438l3.6,4.5a2.756,2.756,0,0,0,3.959.4,2.955,2.955,0,0,0,.386-4.076L6.771,7l2.2-1.864A2.956,2.956,0,0,0,9.36,1.057,2.758,2.758,0,0,0,5.4.658" transform="translate(90 30)"/><path class="j" d="M1.885,8.92l5.388,1.915a2.859,2.859,0,0,0,2.172-.106,2.83,2.83,0,0,0,1.461-1.6l1.927-5.353A2.812,2.812,0,0,0,12.059.725,2.852,2.852,0,0,0,7.482,1.873L6.512,4.568,3.8,3.6A2.825,2.825,0,1,0,1.885,8.92" transform="translate(68 63)"/><path class="b" d="M3.363.121A13.661,13.661,0,0,0,.356,2.148,1.036,1.036,0,0,0,.3,3.66a1.157,1.157,0,0,0,1.181.283,1.129,1.129,0,0,0,.4-.23A11.415,11.415,0,0,1,4.4,2.018,1.046,1.046,0,0,0,4.873.576,1.147,1.147,0,0,0,3.363.121" transform="translate(36 26)"/><path class="b" d="M1,0A1.114,1.114,0,0,0,0,1.2V7.8A1.114,1.114,0,0,0,1,9,1.114,1.114,0,0,0,2,7.8V1.2A1.114,1.114,0,0,0,1,0" transform="translate(142 41)"/><path class="b" d="M7.8,0H1.2A1.114,1.114,0,0,0,0,1,1.114,1.114,0,0,0,1.2,2H7.8A1.114,1.114,0,0,0,9,1,1.114,1.114,0,0,0,7.8,0" transform="translate(139 44)"/><path class="b" d="M8.5,17a1.212,1.212,0,0,1-1.121-.746L5.425,11.575.746,9.62a1.214,1.214,0,0,1,0-2.241L5.425,5.425,7.379.746a1.214,1.214,0,0,1,2.241,0l1.955,4.679,4.679,1.954a1.214,1.214,0,0,1,0,2.241l-4.679,1.955L9.62,16.254A1.21,1.21,0,0,1,8.5,17Zm0-12.635L7.474,6.821a1.207,1.207,0,0,1-.652.652L4.365,8.5,6.821,9.527a1.2,1.2,0,0,1,.652.652L8.5,12.635l1.026-2.457a1.222,1.222,0,0,1,.653-.652L12.635,8.5,10.178,7.474a1.209,1.209,0,0,1-.653-.652Z" transform="translate(125 117)"/></g></svg>