<svg xmlns="http://www.w3.org/2000/svg" width="45" height="45" viewBox="0 0 45 45"><defs><style>.a{fill:none;stroke:#e6e6e6;stroke-miterlimit:10;}.b{fill:#20548c;}</style></defs><g transform="translate(0.5 0.5)"><circle class="a" cx="22" cy="22" r="22"/><path class="b" d="M16.292,17H.708A.671.671,0,0,1,0,16.292V.708A.671.671,0,0,1,.708,0H16.292A.671.671,0,0,1,17,.708V16.292A.671.671,0,0,1,16.292,17ZM6.658,6.375v8.146H9.207V10.483c0-.994.115-2.054,1.488-2.054a1.073,1.073,0,0,1,1.116.717,4.113,4.113,0,0,1,.159,1.408v3.966h2.55V10.13a5.172,5.172,0,0,0-.567-2.771,2.679,2.679,0,0,0-2.479-1.125A2.6,2.6,0,0,0,9.067,7.509V6.375Zm-4.109,0v8.146H5.1V6.375Zm1.2-4.108a1.487,1.487,0,0,0,0,2.974A1.455,1.455,0,0,0,5.242,3.754,1.489,1.489,0,0,0,3.754,2.267Z" transform="translate(14.119 13)"/></g></svg>