<?xml version="1.0" encoding="UTF-8"?>
<svg width="46px" height="46px" viewBox="0 0 46 46" version="1.1" xmlns="http://www.w3.org/2000/svg" xmlns:xlink="http://www.w3.org/1999/xlink">
    <!-- Generator: Sketch 49 (51002) - http://www.bohemiancoding.com/sketch -->
    <title>linkedin</title>
    <desc>Created with Sketch.</desc>
    <defs></defs>
    <g id="Symbols" stroke="none" stroke-width="1" fill="none" fill-rule="evenodd">
        <g id="footer" transform="translate(-126.000000, -366.000000)">
            <g id="linkedin" transform="translate(127.000000, 367.000000)">
                <circle id="Oval-4-Copy-2" stroke="#E6E6E6" cx="22" cy="22" r="22"></circle>
                <path d="M28.639974,27.5208333 L26.089974,27.5208333 L26.089974,23.5541667 C26.089974,22.6333333 26.089974,21.4291667 24.814974,21.4291667 C23.4691406,21.4291667 23.327474,22.4208333 23.327474,23.4833333 L23.327474,27.5208333 L20.777474,27.5208333 L20.777474,19.375 L23.1858073,19.375 L23.1858073,20.5083333 C23.539974,19.8708333 24.3191406,19.2333333 25.5941406,19.2333333 C28.1441406,19.2333333 28.639974,20.9333333 28.639974,23.1291667 L28.639974,27.5208333 Z M17.8733073,18.2416667 C17.0941406,18.2416667 16.3858073,17.6041667 16.3858073,16.7541667 C16.3858073,15.975 17.0233073,15.2666667 17.8733073,15.2666667 C18.652474,15.2666667 19.3608073,15.9041667 19.3608073,16.7541667 C19.3608073,17.6041667 18.7233073,18.2416667 17.8733073,18.2416667 L17.8733073,18.2416667 Z M19.1483073,27.5208333 L16.6691406,27.5208333 L16.6691406,19.375 L19.2191406,19.375 L19.2191406,27.5208333 L19.1483073,27.5208333 Z M30.4108073,13 L14.827474,13 C14.402474,13 14.1191406,13.2833333 14.1191406,13.7083333 L14.1191406,29.2916667 C14.1191406,29.7166667 14.402474,30 14.827474,30 L30.4108073,30 C30.8358073,30 31.1191406,29.7166667 31.1191406,29.2916667 L31.1191406,13.7083333 C31.1191406,13.2833333 30.8358073,13 30.4108073,13 L30.4108073,13 Z" id="Fill-44" fill="#C2C2C2"></path>
            </g>
        </g>
    </g>
</svg>