<svg xmlns="http://www.w3.org/2000/svg" width="199.774" height="34.113" viewBox="0 0 199.774 34.113"><defs><style>.a{fill:#232323;}.b{fill:#f37221;}</style></defs><g transform="translate(-0.153 -0.231)"><g transform="translate(58.951 10.718)"><path class="a" d="M8.508,3.535A4.05,4.05,0,0,0,5.534,2.462c-1.414,0-2.194.439-2.194,1.195,0,.78.706,1.219,2.243,1.317,2.267.146,5.144.658,5.144,3.853,0,2.121-1.731,3.949-5.169,3.949A7.033,7.033,0,0,1,0,10.63L1.464,8.509A6.587,6.587,0,0,0,5.607,10.19c1.122.025,2.17-.559,2.17-1.437,0-.83-.682-1.17-2.39-1.268C3.12,7.314.415,6.485.415,3.755.415.975,3.292,0,5.486,0a6.455,6.455,0,0,1,4.681,1.585Z" transform="translate(0.238 0.315)"/><path class="a" d="M2.973,0V6.289c0,1.829,1,3.22,2.9,3.22A3.163,3.163,0,0,0,8.947,6.144V0H11.9V12.044H9.24l-.195-1.633a5.354,5.354,0,0,1-4.073,1.8C2.1,12.213,0,10.044,0,6.314V0H2.973Z" transform="translate(12.935 0.656)"/><path class="a" d="M8.923,12.215V5.924c0-1.828-1-3.218-2.9-3.218A3.162,3.162,0,0,0,2.951,6.07v6.145H0V.17H2.658L2.853,1.8A5.422,5.422,0,0,1,6.8,0c2.829,0,5.1,2.121,5.1,5.9v6.315Z" transform="translate(27.385 0.461)"/><path class="a" d="M8.509,3.535A4.05,4.05,0,0,0,5.535,2.462c-1.415,0-2.194.439-2.194,1.195,0,.78.707,1.219,2.243,1.317,2.267.146,5.143.658,5.143,3.853,0,2.121-1.731,3.949-5.169,3.949A7.035,7.035,0,0,1,0,10.63L1.464,8.509A6.589,6.589,0,0,0,5.608,10.19c1.122.025,2.17-.559,2.17-1.437,0-.83-.683-1.17-2.39-1.268-2.267-.171-4.972-1-4.972-3.73C.416.975,3.292,0,5.486,0a6.455,6.455,0,0,1,4.681,1.585Z" transform="translate(41.178 0.315)"/><path class="a" d="M11.021,10.825a6.186,6.186,0,0,1-4.632,1.9C2.9,12.727,0,10.63,0,6.363S2.9,0,6.388,0a5.71,5.71,0,0,1,4.339,1.78L8.85,3.755A3.65,3.65,0,0,0,6.436,2.8a3.381,3.381,0,0,0-3.461,3.56A3.275,3.275,0,0,0,6.389,9.874a3.613,3.613,0,0,0,2.633-1Z" transform="translate(53.094 0.315)"/><path class="a" d="M2.755.317l.218,1.389A3.545,3.545,0,0,1,6.363,0a4.558,4.558,0,0,1,3.1,1.145L8.118,3.73a2.973,2.973,0,0,0-2.146-.78A2.773,2.773,0,0,0,2.973,6v6.34H0V.317H2.755Z" transform="translate(65.426 0.339)"/><path class="a" d="M6.134,12.679a6.1,6.1,0,0,1-4.391-1.622A6.49,6.49,0,0,1,0,6.291,6.258,6.258,0,0,1,1.8,1.6,6.261,6.261,0,0,1,6.209,0h.056a4.44,4.44,0,0,1,3.829,1.951l.1-1.658h2.853v12.02h-2.8l-.146-1.756a4.546,4.546,0,0,1-3.9,2.121Zm.4-10.021a3.586,3.586,0,0,0-2.521.957A3.612,3.612,0,0,0,2.975,6.291,3.65,3.65,0,0,0,4.014,8.979a3.567,3.567,0,0,0,2.521.969A3.344,3.344,0,0,0,9.168,8.81,3.839,3.839,0,0,0,10.046,6.3,3.436,3.436,0,0,0,6.535,2.659Z" transform="translate(75.345 0.363)"/><path class="a" d="M2.974,17.31H0V.269H2.778l.2,1.657A4.785,4.785,0,0,1,6.875,0a6.092,6.092,0,0,1,4.474,1.819A6.412,6.412,0,0,1,13.044,6.29a6.554,6.554,0,0,1-1.591,4.461,5.876,5.876,0,0,1-4.481,1.828c-1.4,0-3.182-.448-4-1.705v6.435ZM6.655,2.876A3.265,3.265,0,0,0,3.243,6.29,3.337,3.337,0,0,0,6.655,9.7,3.338,3.338,0,0,0,10.068,6.29,3.266,3.266,0,0,0,6.655,2.876Z" transform="translate(90.893 0.388)"/><path class="a" d="M6.607,12.7a6.723,6.723,0,0,1-4.858-1.76A6.354,6.354,0,0,1,0,6.291,6.238,6.238,0,0,1,1.731,1.774,6.386,6.386,0,0,1,6.387,0a6.056,6.056,0,0,1,4.635,1.769,7.224,7.224,0,0,1,1.436,5.667H3.072C3.279,9.014,4.653,10,6.656,10a5.01,5.01,0,0,0,3.217-1.12l1.9,1.877A7.354,7.354,0,0,1,6.607,12.7ZM6.485,2.633a3.807,3.807,0,0,0-2.121.585A3.019,3.019,0,0,0,3.121,4.972H9.606C9.42,3.486,8.284,2.633,6.485,2.633Z" transform="translate(105.588 0.29)"/><path class="a" d="M2.755.317l.218,1.389A3.545,3.545,0,0,1,6.363,0a4.555,4.555,0,0,1,3.1,1.145L8.118,3.73a2.973,2.973,0,0,0-2.146-.78A2.774,2.774,0,0,0,2.973,6v6.34H0V.317H2.755Z" transform="translate(120.333 0.339)"/><path class="a" d="M8.509,3.535A4.051,4.051,0,0,0,5.535,2.462c-1.415,0-2.194.439-2.194,1.195,0,.78.707,1.219,2.243,1.317,2.267.146,5.143.658,5.143,3.853,0,2.121-1.731,3.949-5.169,3.949A7.034,7.034,0,0,1,0,10.63L1.464,8.509A6.588,6.588,0,0,0,5.608,10.19c1.121.025,2.17-.559,2.17-1.437,0-.83-.683-1.17-2.39-1.268-2.267-.171-4.972-1-4.972-3.73C.416.975,3.292,0,5.486,0a6.456,6.456,0,0,1,4.681,1.585Z" transform="translate(130.249 0.315)"/></g><path class="b" d="M7.033,29.623l2.478-16.2L11.8,10.8l2.086,1.638-.147,16.251c1.841-.187,3.748-.329,5.706-.419L21.273,6.042l2.745-2.463,2.958,2.488L28.8,28.228c1.7.066,3.364.165,4.982.3l-.146-16.1L35.716,10.8l2.3,2.625,2.431,15.91a67.8,67.8,0,0,1,7.779,1.673,24.121,24.121,0,0,0-7.052-14.819l-.605-3.951-4.5-5.147-4.242,3.329c-.6-.2-1.2-.384-1.822-.538l-.424-5.158L23.96,0,18.667,4.748l-.422,5.132a23.952,23.952,0,0,0-2.329.708l-4.46-3.5-4.5,5.147-.738,4.83A24.114,24.114,0,0,0,0,31.29,61.986,61.986,0,0,1,7.033,29.623Z" transform="translate(0.153 0.231)"/><path class="b" d="M48.223,2.487S34.605.107,24.112,0,0,2.9,0,2.9,14.859,4,24.112,4,48.223,2.487,48.223,2.487Z" transform="translate(0.153 30.339)"/></g></svg>