<svg xmlns="http://www.w3.org/2000/svg" xmlns:xlink="http://www.w3.org/1999/xlink" width="199.939" height="134.79" viewBox="0 0 199.939 134.79"><defs><style>.a{fill:none;}.b{fill:#f1f2f2;}.c{fill:#494848;}.d{fill:#cdcccc;}.e{clip-path:url(#a);}.f{fill:#7f8aa0;}.g{fill:#f7f7f5;}.h{fill:#e6e7e8;}.i{fill:#d1d3d4;}.j{fill:#ff7211;}</style><clipPath id="a"><path class="a" d="M0,134.79H199.939V0H0Z" transform="translate(0 0.117)"/></clipPath></defs><g transform="translate(0 -0.117)"><path class="b" d="M85.335,19.253h0a3.881,3.881,0,0,0-4-3.751H59.823a3.536,3.536,0,0,1-3.644-3.417,3.536,3.536,0,0,1,3.644-3.417h1.422a4.485,4.485,0,0,0,4.622-4.334A4.485,4.485,0,0,0,61.245,0H6.934A4.485,4.485,0,0,0,2.311,4.334,4.485,4.485,0,0,0,6.934,8.668H35.645a3.536,3.536,0,0,1,3.644,3.417A3.536,3.536,0,0,0,42.934,15.5h.978a3.881,3.881,0,0,1,4,3.751,3.881,3.881,0,0,0,4,3.75h.622a2.422,2.422,0,1,1,0,4.834H3.189a3,3,0,1,0,0,5.98H13.322A4.151,4.151,0,0,1,17.6,37.828a4.151,4.151,0,0,0,4.278,4.011A2.749,2.749,0,0,1,24.712,44.5v1.927A4.744,4.744,0,0,0,29.6,51.007h3.2a2.589,2.589,0,1,1,0,5.167H16.223a2.338,2.338,0,1,0,0,4.667h20.4a2.588,2.588,0,0,1,2.667,2.5,2.588,2.588,0,0,0,2.667,2.5H82.668a2.506,2.506,0,1,0,0-5H60.179a2.415,2.415,0,0,1-2.489-2.334A2.415,2.415,0,0,0,55.2,56.175H46.667a2.589,2.589,0,1,1,0-5.167H77.423a4.594,4.594,0,1,0,0-9.168H43.567a4.019,4.019,0,1,1,0-8.022H62.59a3.094,3.094,0,0,0,3.189-2.99v-.24a2.846,2.846,0,0,0-2.933-2.75,2.422,2.422,0,1,1,0-4.834H81.335a3.881,3.881,0,0,0,4-3.75" transform="translate(107.051 6.847)"/><path class="b" d="M85.335,19.253h0a3.881,3.881,0,0,0-4-3.751H59.823a3.536,3.536,0,0,1-3.644-3.417,3.536,3.536,0,0,1,3.644-3.417h1.422a4.485,4.485,0,0,0,4.622-4.334A4.485,4.485,0,0,0,61.245,0H6.934A4.485,4.485,0,0,0,2.311,4.334,4.485,4.485,0,0,0,6.934,8.668H35.645a3.536,3.536,0,0,1,3.644,3.417A3.536,3.536,0,0,0,42.934,15.5h.978a3.881,3.881,0,0,1,4,3.751,3.881,3.881,0,0,0,4,3.75h.622a2.422,2.422,0,1,1,0,4.834H3.189a3,3,0,1,0,0,5.98H13.322A4.151,4.151,0,0,1,17.6,37.828a4.151,4.151,0,0,0,4.278,4.011A2.749,2.749,0,0,1,24.712,44.5v1.927A4.744,4.744,0,0,0,29.6,51.007h3.2a2.589,2.589,0,1,1,0,5.167H16.223a2.338,2.338,0,1,0,0,4.667h20.4a2.588,2.588,0,0,1,2.667,2.5,2.588,2.588,0,0,0,2.667,2.5H82.668a2.506,2.506,0,1,0,0-5H60.179a2.415,2.415,0,0,1-2.489-2.334A2.415,2.415,0,0,0,55.2,56.175H46.667a2.589,2.589,0,1,1,0-5.167H77.423a4.594,4.594,0,1,0,0-9.168H43.567a4.019,4.019,0,1,1,0-8.022H62.59a3.094,3.094,0,0,0,3.189-2.99v-.24a2.846,2.846,0,0,0-2.933-2.75,2.422,2.422,0,1,1,0-4.834H81.335a3.881,3.881,0,0,0,4-3.75" transform="translate(0 28.212)"/><path class="b" d="M85.335,19.253h0a3.881,3.881,0,0,0-4-3.751H59.823a3.536,3.536,0,0,1-3.644-3.417,3.536,3.536,0,0,1,3.644-3.417h1.422a4.485,4.485,0,0,0,4.622-4.334A4.485,4.485,0,0,0,61.245,0H6.934A4.485,4.485,0,0,0,2.311,4.334,4.485,4.485,0,0,0,6.934,8.668H35.645a3.536,3.536,0,0,1,3.644,3.417A3.536,3.536,0,0,0,42.934,15.5h.978a3.881,3.881,0,0,1,4,3.751,3.881,3.881,0,0,0,4,3.75h.622a2.422,2.422,0,1,1,0,4.834H3.189a3,3,0,1,0,0,5.98H13.322A4.151,4.151,0,0,1,17.6,37.828a4.151,4.151,0,0,0,4.278,4.011A2.749,2.749,0,0,1,24.712,44.5v1.927A4.744,4.744,0,0,0,29.6,51.007h3.2a2.589,2.589,0,1,1,0,5.167H16.223a2.338,2.338,0,1,0,0,4.667h20.4a2.588,2.588,0,0,1,2.667,2.5,2.588,2.588,0,0,0,2.667,2.5H82.668a2.506,2.506,0,1,0,0-5H60.179a2.415,2.415,0,0,1-2.489-2.334A2.415,2.415,0,0,0,55.2,56.175H46.667a2.589,2.589,0,1,1,0-5.167H77.423a4.594,4.594,0,1,0,0-9.168H43.567a4.019,4.019,0,1,1,0-8.022H62.59a3.094,3.094,0,0,0,3.189-2.99v-.24a2.846,2.846,0,0,0-2.933-2.75,2.422,2.422,0,1,1,0-4.834H81.335a3.881,3.881,0,0,0,4-3.75" transform="translate(45.123 56.856)"/><path class="c" d="M.342.347A1.174,1.174,0,1,0,2,.342a1.173,1.173,0,0,0-1.662,0" transform="translate(38.879 113.298)"/><path class="c" d="M1.175,0A1.174,1.174,0,1,0,2.35,1.174,1.175,1.175,0,0,0,1.175,0" transform="translate(44.586 110.928)"/><path class="c" d="M1.169,0a1.174,1.174,0,0,0,.006,2.348h.006A1.174,1.174,0,1,0,1.169,0" transform="translate(36.537 119.011)"/><path class="c" d="M.338.351A1.174,1.174,0,1,0,2,.338,1.172,1.172,0,0,0,.338.351" transform="translate(38.939 124.699)"/><path class="c" d="M1.162,0a1.174,1.174,0,0,0,.012,2.348h.013A1.174,1.174,0,1,0,1.162,0" transform="translate(44.67 127.01)"/><path class="c" d="M1.158,0a1.174,1.174,0,0,0,.018,2.348h.019A1.174,1.174,0,1,0,1.158,0" transform="translate(52.634 118.843)"/><path class="c" d="M.333.354A1.175,1.175,0,1,0,1.995.333,1.173,1.173,0,0,0,.333.354" transform="translate(50.351 124.58)"/><path class="c" d="M.33.359A1.175,1.175,0,1,0,1.99.329,1.173,1.173,0,0,0,.33.359" transform="translate(50.173 113.18)"/><path class="d" d="M0,6.937A8.8,8.8,0,0,0,8.8,15.73H117.343a8.8,8.8,0,0,0,8.8-8.793V0H0Z" transform="translate(35.068 89.359)"/><path class="a" d="M0,134.79H199.939V0H0Z" transform="translate(0 0.117)"/><g class="e"><path class="d" d="M0,23.431H18.62V0H0Z" transform="translate(88.498 104.849)"/><path class="f" d="M4.382,0A5.154,5.154,0,0,0,0,2.343v.24H56.639V1.34A5.144,5.144,0,0,0,53.1,0Z" transform="translate(69.615 128.333)"/><path class="g" d="M116.132,0H10.037A10.032,10.032,0,0,0,0,10.027v62.56H126.169V10.027A10.032,10.032,0,0,0,116.132,0" transform="translate(35.044 16.772)"/><path class="h" d="M62.045,30.991A31.022,31.022,0,1,1,31.022,0,31.007,31.007,0,0,1,62.045,30.991" transform="translate(66.678 21.742)"/><path class="i" d="M31.6,63.157a31.861,31.861,0,0,1-6.124-.593.587.587,0,0,1,.113-1.163.591.591,0,0,1,.113.011,30.913,30.913,0,0,0,11.315.091.587.587,0,0,1,.682.473.586.586,0,0,1-.474.681A31.89,31.89,0,0,1,31.6,63.157Zm7.815-.992a.586.586,0,0,1-.568-.44.587.587,0,0,1,.421-.715,30.421,30.421,0,0,0,4.3-1.469.587.587,0,1,1,.463,1.079,31.571,31.571,0,0,1-4.47,1.526A.6.6,0,0,1,39.418,62.165Zm-18.353-.842a.594.594,0,0,1-.2-.035c-.382-.138-.754-.281-1.107-.423a.588.588,0,0,1,.221-1.132.576.576,0,0,1,.22.043c.35.142.709.279,1.067.408a.588.588,0,0,1,.353.752A.589.589,0,0,1,21.065,61.322ZM10.172,54.571a.584.584,0,0,1-.406-.163A31.4,31.4,0,0,1,6.6,50.9a.587.587,0,0,1,.929-.719,30.823,30.823,0,0,0,3.045,3.374.586.586,0,0,1,.019.83A.592.592,0,0,1,10.172,54.571Zm43.311-.436a.587.587,0,0,1-.415-1c.282-.281.548-.556.792-.817a.587.587,0,0,1,.86.8c-.27.289-.546.574-.823.849A.584.584,0,0,1,53.483,54.136Zm3.742-4.493a.565.565,0,0,1-.331-.1.586.586,0,0,1-.153-.815,30.127,30.127,0,0,0,4.536-10.354.591.591,0,0,1,.572-.455.505.505,0,0,1,.131.014.586.586,0,0,1,.443.7,31.305,31.305,0,0,1-4.711,10.756A.589.589,0,0,1,57.225,49.643ZM5.7,49.225a.589.589,0,0,1-.491-.263A31.288,31.288,0,0,1,.676,38.131a.588.588,0,0,1,.454-.7.669.669,0,0,1,.122-.013.589.589,0,0,1,.574.466A30.054,30.054,0,0,0,6.191,48.315a.586.586,0,0,1-.167.813A.562.562,0,0,1,5.7,49.225ZM62.285,36.783a.556.556,0,0,1-.077-.005H62.2a.587.587,0,0,1-.494-.668,30.676,30.676,0,0,0-.422-11.3.587.587,0,0,1,.443-.7.487.487,0,0,1,.131-.014.584.584,0,0,1,.572.457,31.871,31.871,0,0,1,.438,11.736A.59.59,0,0,1,62.285,36.783ZM.631,33.948a.588.588,0,0,1-.586-.554c-.022-.436-.037-.833-.045-1.18a.587.587,0,0,1,.576-.6H.6a.587.587,0,0,1,.579.575c.007.408.022.79.043,1.136a.58.58,0,0,1-.148.424.584.584,0,0,1-.4.2ZM61.246,23a.59.59,0,0,1-.561-.414,29.648,29.648,0,0,0-1.667-4.226.582.582,0,0,1-.026-.448.588.588,0,0,1,1.084-.063,31.123,31.123,0,0,1,1.732,4.391.575.575,0,0,1-.041.447.585.585,0,0,1-.347.287A.673.673,0,0,1,61.246,23Zm-58.7-1.71a.676.676,0,0,1-.206-.037A.587.587,0,0,1,2,20.494a31.935,31.935,0,0,1,1.987-4.283.587.587,0,0,1,.513-.3.64.64,0,0,1,.286.075.577.577,0,0,1,.278.351.583.583,0,0,1-.051.447A30.316,30.316,0,0,0,3.1,20.906.59.59,0,0,1,2.546,21.287Zm3.172-6.209a.567.567,0,0,1-.324-.1.588.588,0,0,1-.165-.814,31.618,31.618,0,0,1,8.188-8.42.58.58,0,0,1,.337-.107.589.589,0,0,1,.481.249.585.585,0,0,1-.141.817,30.463,30.463,0,0,0-7.886,8.109A.584.584,0,0,1,5.718,15.078Zm46.858-5.75a.586.586,0,0,1-.4-.154c-.292-.267-.579-.521-.853-.754a.587.587,0,0,1,.382-1.033.589.589,0,0,1,.381.14c.36.309.649.565.886.782a.588.588,0,0,1,.035.83A.589.589,0,0,1,52.575,9.328ZM47.911,5.8a.589.589,0,0,1-.309-.088A30.07,30.07,0,0,0,37.041,1.658a.587.587,0,0,1,.1-1.165A.478.478,0,0,1,37.25.5,31.318,31.318,0,0,1,48.221,4.711a.587.587,0,0,1,.191.808A.588.588,0,0,1,47.911,5.8ZM17.785,4.411A.587.587,0,0,1,17.523,3.3c.323-.161.682-.331,1.065-.506a.682.682,0,0,1,.242-.052.59.59,0,0,1,.535.345.588.588,0,0,1-.293.777c-.374.169-.719.333-1.025.487A.581.581,0,0,1,17.785,4.411ZM34.821,1.338a.343.343,0,0,1-.061,0A30.241,30.241,0,0,0,31.6,1.174c-.4,0-.864.011-1.389.031h-.022A.587.587,0,0,1,30.161.032C30.61.011,31.095,0,31.6,0c1.05,0,2.153.056,3.281.167a.587.587,0,0,1-.059,1.171Z" transform="translate(66.096 21.155)"/><path class="c" d="M117.886,90.666H10.634A10.64,10.64,0,0,1,0,80.043V10.624A10.641,10.641,0,0,1,10.634,0H117.886a10.641,10.641,0,0,1,10.633,10.624v69.42A10.64,10.64,0,0,1,117.886,90.666ZM10.634,2.348A8.289,8.289,0,0,0,2.35,10.624v69.42a8.288,8.288,0,0,0,8.284,8.275H117.886a8.288,8.288,0,0,0,8.284-8.275V10.624a8.289,8.289,0,0,0-8.284-8.275Z" transform="translate(33.868 15.598)"/><path class="c" d="M19.153,0a1.175,1.175,0,0,0-1.175,1.174V23.19H2.35V1.174a1.175,1.175,0,0,0-2.35,0v23.19a1.175,1.175,0,0,0,1.175,1.174H19.153a1.175,1.175,0,0,0,1.175-1.174V1.174A1.175,1.175,0,0,0,19.153,0" transform="translate(87.964 103.916)"/><path class="c" d="M60.749,7.8H1.175A1.176,1.176,0,0,1,0,6.628,6.638,6.638,0,0,1,6.634,0H55.291a6.638,6.638,0,0,1,6.634,6.628A1.176,1.176,0,0,1,60.749,7.8ZM6.634,2.348a4.3,4.3,0,0,0-4.12,3.105h56.9a4.3,4.3,0,0,0-4.119-3.105Z" transform="translate(67.166 127.106)"/><path class="c" d="M127.262,0H1.175a1.174,1.174,0,1,0,0,2.348H127.262a1.174,1.174,0,1,0,0-2.348" transform="translate(33.893 88.186)"/><path class="c" d="M4.113,8.219A4.109,4.109,0,1,1,8.227,4.109,4.116,4.116,0,0,1,4.113,8.219Zm0-5.871A1.761,1.761,0,1,0,5.877,4.109,1.764,1.764,0,0,0,4.113,2.348Z" transform="translate(94.015 92.867)"/><path class="c" d="M9.283,18.547a9.274,9.274,0,1,1,9.283-9.274A9.289,9.289,0,0,1,9.283,18.547Zm0-16.2a6.926,6.926,0,1,0,6.933,6.925A6.937,6.937,0,0,0,9.283,2.348Z" transform="translate(88.318 43.642)"/><path class="c" d="M1.627.09a1.174,1.174,0,1,0,.633,1.535A1.177,1.177,0,0,0,1.627.09" transform="translate(89.63 68.087)"/><path class="c" d="M.345.344a1.174,1.174,0,1,0,1.662,0,1.173,1.173,0,0,0-1.662,0" transform="translate(83.904 39.225)"/><path class="c" d="M2.262.727A1.175,1.175,0,1,0,1.175,2.348a1.161,1.161,0,0,0,.448-.089A1.172,1.172,0,0,0,2.261.727Z" transform="translate(112.808 44.997)"/><path class="c" d="M.726.089A1.174,1.174,0,1,0,2.262.726,1.172,1.172,0,0,0,.726.089" transform="translate(80.052 58.503)"/><path class="c" d="M1.175,0a1.174,1.174,0,1,0,0,2.348h0A1.174,1.174,0,1,0,1.175,0" transform="translate(78.713 51.731)"/><path class="c" d="M.345.344a1.174,1.174,0,1,0,1.662,0,1.172,1.172,0,0,0-1.662,0" transform="translate(83.891 64.244)"/><path class="c" d="M.725.09A1.174,1.174,0,1,0,2.261.725,1.173,1.173,0,0,0,.725.09" transform="translate(89.648 35.387)"/><path class="c" d="M1.626.09A1.173,1.173,0,1,0,2.26,1.624,1.175,1.175,0,0,0,1.626.09" transform="translate(80.059 44.961)"/><path class="c" d="M1.176,0a1.174,1.174,0,1,0,0,2.348h0A1.174,1.174,0,1,0,1.176,0" transform="translate(96.406 69.437)"/><path class="c" d="M.345.343a1.175,1.175,0,0,0,1.66,1.663h0A1.175,1.175,0,0,0,.345.343" transform="translate(108.934 64.271)"/><path class="c" d="M.346.343a1.175,1.175,0,1,0,1.662,0,1.173,1.173,0,0,0-1.662,0" transform="translate(108.976 39.252)"/><path class="c" d="M1.177,0a1.174,1.174,0,1,0,0,2.348h0A1.174,1.174,0,1,0,1.177,0" transform="translate(114.139 51.771)"/><path class="c" d="M1.627.091A1.174,1.174,0,1,0,2.26,1.625,1.173,1.173,0,0,0,1.627.091" transform="translate(112.785 58.539)"/><path class="c" d="M1.628.09a1.174,1.174,0,1,0-.9,2.167,1.161,1.161,0,0,0,.451.092A1.175,1.175,0,0,0,1.628.09" transform="translate(103.24 35.402)"/><path class="c" d="M1.217,0H1.175a1.174,1.174,0,1,0,0,2.348h.04A1.174,1.174,0,1,0,1.217,0" transform="translate(96.426 34.046)"/><path class="c" d="M.727.089a1.174,1.174,0,1,0,.9,2.171h0A1.174,1.174,0,1,0,.727.089" transform="translate(103.185 68.102)"/><path class="j" d="M3.933,10.538,7.256,7.278a2.309,2.309,0,0,0,.03-3.267L4.023.692a2.311,2.311,0,1,0-3.3,3.237L2.365,5.6.692,7.241a2.311,2.311,0,1,0,3.241,3.3" transform="translate(133.729 71.479)"/><path class="j" d="M3.389,0A3.385,3.385,0,1,0,6.777,3.385,3.387,3.387,0,0,0,3.389,0" transform="translate(147.778 33.911)"/><path class="c" d="M4.785,9.561A4.78,4.78,0,1,1,9.571,4.78,4.788,4.788,0,0,1,4.785,9.561Zm0-7.213A2.432,2.432,0,1,0,7.221,4.78,2.436,2.436,0,0,0,4.785,2.348Z" transform="translate(143.718 32.457)"/><path class="j" d="M45.358,4.7H2.35a2.348,2.348,0,1,1,0-4.7H45.358a2.348,2.348,0,1,1,0,4.7" transform="translate(54.574 75.272)"/><path class="j" d="M19.271,4.7H2.35a2.348,2.348,0,1,1,0-4.7H19.271a2.348,2.348,0,1,1,0,4.7" transform="translate(115.209 74.686)"/><path class="j" d="M27.262,54.47A27.229,27.229,0,0,1,7.985,7.977a27.282,27.282,0,0,1,38.554,0A27.235,27.235,0,0,1,27.262,54.47Zm0-49.775a22.539,22.539,0,1,0,22.562,22.54A22.576,22.576,0,0,0,27.262,4.7Z" transform="translate(70.438 25.499)"/><path class="j" d="M3.389,0A3.385,3.385,0,1,0,6.777,3.385,3.387,3.387,0,0,0,3.389,0" transform="translate(20.521 55.334)"/><path class="c" d="M4.785,9.561A4.78,4.78,0,1,1,9.571,4.78,4.788,4.788,0,0,1,4.785,9.561Zm0-7.213A2.432,2.432,0,1,0,7.221,4.78,2.436,2.436,0,0,0,4.785,2.348Z" transform="translate(16.461 53.881)"/><path class="j" d="M3.389,0A3.385,3.385,0,1,0,6.777,3.385,3.387,3.387,0,0,0,3.389,0" transform="translate(96.668 1.571)"/><path class="c" d="M4.785,9.561a4.78,4.78,0,1,1,4.785-4.78A4.788,4.788,0,0,1,4.785,9.561Zm0-7.213A2.432,2.432,0,1,0,7.221,4.781,2.437,2.437,0,0,0,4.785,2.348Z" transform="translate(92.608 0.117)"/><path class="c" d="M29.73,0H1.175a1.174,1.174,0,1,0,0,2.348H29.73A1.174,1.174,0,1,0,29.73,0" transform="translate(13.68 22.442)"/><path class="c" d="M12.573,0H1.175a1.174,1.174,0,1,0,0,2.348h11.4a1.174,1.174,0,1,0,0-2.348" transform="translate(47.875 22.442)"/><path class="c" d="M33.255,0H1.175a1.174,1.174,0,1,0,0,2.348h32.08a1.174,1.174,0,1,0,0-2.348" transform="translate(13.68 31.247)"/><path class="c" d="M16.921,0H1.175a1.174,1.174,0,1,0,0,2.348H16.921a1.174,1.174,0,1,0,0-2.348" transform="translate(13.68 39.464)"/><path class="c" d="M29.73,0H1.175a1.174,1.174,0,1,0,0,2.348H29.73A1.174,1.174,0,1,0,29.73,0" transform="translate(151.995 60.829)"/><path class="c" d="M12.573,0H1.175a1.174,1.174,0,1,0,0,2.348h11.4a1.174,1.174,0,1,0,0-2.348" transform="translate(186.19 60.829)"/><path class="c" d="M33.255,0H1.175a1.174,1.174,0,1,0,0,2.348h32.08a1.174,1.174,0,1,0,0-2.348" transform="translate(151.995 69.633)"/><path class="c" d="M16.921,0H1.175a1.174,1.174,0,1,0,0,2.348H16.921a1.174,1.174,0,1,0,0-2.348" transform="translate(151.995 77.85)"/><path class="c" d="M1.175,0A1.174,1.174,0,1,0,2.35,1.174,1.174,1.174,0,0,0,1.175,0" transform="translate(58.806 3.782)"/><path class="c" d="M1.175,0A1.174,1.174,0,1,0,2.35,1.174,1.175,1.175,0,0,0,1.175,0" transform="translate(51.991 3.782)"/><path class="c" d="M1.175,0A1.174,1.174,0,1,0,2.35,1.174,1.175,1.175,0,0,0,1.175,0" transform="translate(65.622 3.782)"/><path class="c" d="M1.175,0A1.174,1.174,0,1,0,2.35,1.174,1.175,1.175,0,0,0,1.175,0" transform="translate(86.068 3.782)"/><path class="c" d="M1.175,0A1.174,1.174,0,1,0,2.35,1.174,1.175,1.175,0,0,0,1.175,0" transform="translate(79.253 3.782)"/><path class="c" d="M1.175,0A1.174,1.174,0,1,0,2.35,1.174,1.175,1.175,0,0,0,1.175,0" transform="translate(72.437 3.782)"/><path class="c" d="M1.175,0A1.175,1.175,0,0,0,0,1.174V7.63a1.175,1.175,0,0,0,2.35,0V1.174A1.175,1.175,0,0,0,1.175,0" transform="translate(45.761 63.533)"/><path class="c" d="M7.638,0H1.175a1.174,1.174,0,1,0,0,2.348H7.638A1.174,1.174,0,1,0,7.638,0" transform="translate(42.471 66.82)"/><path class="c" d="M8.226,16.435a1.172,1.172,0,0,1-1.085-.722L5.25,11.19.722,9.3a1.174,1.174,0,0,1,0-2.166L5.25,5.245,7.142.722a1.175,1.175,0,0,1,2.168,0L11.2,5.245l4.528,1.889a1.174,1.174,0,0,1,0,2.166L11.2,11.19,9.31,15.713A1.171,1.171,0,0,1,8.226,16.435Zm0-12.215L7.232,6.594a1.164,1.164,0,0,1-.631.631l-2.378.992L6.6,9.21a1.164,1.164,0,0,1,.631.631l.994,2.374.993-2.374A1.164,1.164,0,0,1,9.85,9.21l2.378-.993L9.85,7.225a1.164,1.164,0,0,1-.631-.631Z" transform="translate(165.935 23.7)"/></g></g></svg>