<svg xmlns="http://www.w3.org/2000/svg" width="45" height="45" viewBox="0 0 45 45"><defs><style>.a{fill:none;stroke:#e6e6e6;stroke-miterlimit:10;}.b{fill:#bcbcbc;}</style></defs><g transform="translate(0.5 0.5)"><circle class="a" cx="22" cy="22" r="22"/><path class="b" d="M16,1.533a6,6,0,0,1-1.866.533A3.548,3.548,0,0,0,15.6.267a6.051,6.051,0,0,1-2.066.8A3.226,3.226,0,0,0,11.13,0,3.271,3.271,0,0,0,7.865,3.266,2.5,2.5,0,0,0,7.931,4,9.2,9.2,0,0,1,1.133.533,3.008,3.008,0,0,0,.666,2.2,3.346,3.346,0,0,0,2.133,4.932a2.687,2.687,0,0,1-1.466-.4V4.6a3.233,3.233,0,0,0,2.6,3.2,3.377,3.377,0,0,1-.866.133,1.845,1.845,0,0,1-.6-.067,3.16,3.16,0,0,0,3.066,2.266A6.667,6.667,0,0,1,.8,11.53a3.245,3.245,0,0,1-.8-.067A9.33,9.33,0,0,0,5,12.93,9.247,9.247,0,0,0,14.33,3.6V3.2A7.9,7.9,0,0,0,16,1.533" transform="translate(14 16)"/></g></svg>