<?xml version="1.0" encoding="UTF-8"?>
<svg width="46px" height="46px" viewBox="0 0 46 46" version="1.1" xmlns="http://www.w3.org/2000/svg" xmlns:xlink="http://www.w3.org/1999/xlink">
    <!-- Generator: Sketch 49 (51002) - http://www.bohemiancoding.com/sketch -->
    <title>twitterActive</title>
    <desc>Created with Sketch.</desc>
    <defs></defs>
    <g id="Symbols" stroke="none" stroke-width="1" fill="none" fill-rule="evenodd">
        <g id="footer" transform="translate(-72.000000, -308.000000)">
            <g id="twitterActive" transform="translate(73.000000, 309.000000)">
                <circle id="Oval-4-Copy" stroke="#E6E6E6" cx="22" cy="22" r="22"></circle>
                <path d="M29.9958767,17.5329382 C29.3960313,17.7995361 28.7961859,17.9994846 28.1296911,18.0661341 C28.7961859,17.6662372 29.3293818,16.9997423 29.5959797,16.2665979 C28.9294849,16.6664949 28.26299,16.9330928 27.5298457,17.0663918 C26.9300003,16.3998969 26.063557,16 25.1304642,16 C23.3309281,16 21.8646394,17.4662887 21.8646394,19.2658248 C21.8646394,19.5324228 21.8646394,19.7990207 21.9312888,19.9989692 C19.1320104,19.8656702 16.7326289,18.5326805 15.1330413,16.5331959 C14.7997938,17.0663918 14.6664949,17.5995877 14.6664949,18.199433 C14.6664949,19.3324743 15.2663402,20.3322166 16.1327836,20.932062 C15.5995877,20.932062 15.0663918,20.798763 14.6664949,20.5321651 L14.6664949,20.5988145 C14.6664949,22.1984022 15.7995361,23.5313919 17.2658248,23.7979899 C16.9992269,23.8646394 16.7326289,23.9312888 16.3993815,23.9312888 C16.199433,23.9312888 15.9994846,23.9312888 15.7995361,23.8646394 C16.199433,25.1976291 17.3991238,26.1307219 18.8654125,26.1307219 C17.7323712,26.9971652 16.332732,27.5303611 14.7997938,27.5303611 C14.5331959,27.5303611 14.2665979,27.5303611 14,27.4637116 C15.4662887,28.3968044 17.1991753,28.9300003 18.9987115,28.9300003 C25.0638147,28.9300003 28.3296395,23.9312888 28.3296395,19.5990722 L28.3296395,19.1991753 C28.9961344,18.7326289 29.5293303,18.1327836 29.9958767,17.5329382" id="Fill-82" fill="#54BAFF"></path>
            </g>
        </g>
    </g>
</svg>